<svg width="94" height="100" viewBox="0 0 94 100" fill="none" xmlns="http://www.w3.org/2000/svg">
<path d="M12.4189 35.4377C12.2135 40.6609 13.6321 45.5111 15.9094 50.1561C17.2906 52.973 19.1385 55.4354 21.1358 57.8232C21.9757 58.8305 23.0584 59.5954 24.0663 60.4162C24.757 60.9758 25.6342 61.0691 26.4555 61.0131C29.3114 60.8452 31.0847 62.5241 32.6153 64.5388C33.2312 65.3596 32.9326 65.9006 31.906 65.9379C30.0021 66.0125 28.1728 65.8446 26.6235 64.5388C25.8956 63.9232 25.5036 63.1024 25.1116 62.2816C24.8316 61.7033 24.421 61.2929 23.8237 61.0504C21.1358 59.9125 18.9706 58.047 17.16 55.8644C13.0348 50.9023 10.8136 45.138 9.9363 38.7955C9.20833 33.5349 9.86163 28.4235 11.5602 23.4801C13.0722 19.0776 15.4054 15.0668 18.5972 11.5784C23.6557 6.07532 29.8527 2.53094 37.1511 0.907992C40.6789 0.124499 44.2627 -0.248593 47.8839 0.180462C54.025 0.926646 59.718 2.92269 64.7951 6.48572C70.1896 10.2726 74.1654 15.2347 76.7039 21.2788C78.1972 24.8605 79.0745 28.5728 79.3545 32.4529C79.5225 34.822 79.5038 37.1725 79.1118 39.4857C78.4958 43.0674 77.5812 46.5558 75.808 49.8017C74.3147 52.5439 72.6348 55.1369 70.5815 57.506C68.1363 60.3229 65.2058 62.5614 61.9953 64.4642C61.1366 64.9679 60.166 65.3223 59.4007 65.9752C59.2701 66.0872 59.1021 66.1804 58.9714 66.0125C58.7847 65.8073 58.8967 65.6021 59.0461 65.4156C59.6807 64.6507 60.4273 64.0538 61.286 63.5688C67.371 60.0244 71.8695 55.0436 74.8 48.7011C76.6666 44.6903 77.3946 40.3998 77.6932 36.0533C77.8425 33.7214 77.4319 31.4083 76.9839 29.1324C76.2 25.0843 74.6694 21.3348 72.3921 17.9023C69.4803 13.4998 65.6911 9.99278 61.0993 7.34383C57.3661 5.17989 53.3343 3.986 49.0972 3.38905C41.1082 2.26978 33.7166 4.00466 27.0715 8.42579C20.2772 12.9402 15.592 19.0962 13.4455 27.0431C12.6988 29.804 12.4562 32.5835 12.4189 35.419V35.4377Z" fill="#91562E"/>
<path d="M17.0293 60.2858C17.048 59.2784 17.2906 58.5509 17.5146 57.8047C17.6826 57.2638 17.9813 57.2638 18.3732 57.6182C19.3999 58.5696 19.8105 59.8381 20.1465 61.1253C20.5758 62.7669 20.3518 64.4831 20.7251 66.1433C20.7625 66.2926 20.7625 66.4791 20.5758 66.5724C20.4265 66.647 20.3145 66.5351 20.2025 66.4418C18.3919 64.6883 17.16 62.6363 17.0293 60.2858Z" fill="#91562E"/>
<path d="M16.2635 58.0659C16.3195 59.6515 15.8716 61.1066 16.0396 62.6176C16.0582 62.7855 16.0209 62.972 15.8156 63.0094C15.5729 63.0467 15.4049 62.8601 15.2743 62.6736C14.5463 61.6849 13.9303 60.6402 13.6503 59.4277C13.2397 57.6741 13.221 55.9206 14.0423 54.2417C14.173 53.9805 14.285 53.6261 14.6583 53.6261C15.0316 53.6261 15.2369 53.9246 15.3863 54.2417C15.9836 55.4729 16.4315 56.7414 16.2822 58.0472L16.2635 58.0659Z" fill="#91562E"/>
<path d="M21.9007 60.9569C22.386 61.0875 22.8154 61.2927 23.114 61.7404C23.7673 62.7104 24.4393 63.6432 24.9806 64.6878C25.1859 65.0796 25.2979 65.5086 25.3539 65.9563C25.4286 66.9264 25.5032 67.8778 25.9325 68.7918C26.0445 69.0344 26.2499 69.3328 25.9512 69.538C25.6899 69.7246 25.4099 69.5007 25.2046 69.3328C23.226 67.6539 21.7141 65.6952 21.5647 62.9716C21.5461 62.5052 21.4527 62.0389 21.4341 61.5725C21.4341 61.2927 21.5087 61.0129 21.9007 60.9756V60.9569Z" fill="#91562E"/>
<path d="M31.98 60.2858C31.476 60.2485 30.9721 60.2858 30.4868 60.4164C28.6015 61.0133 26.7909 60.5469 24.999 59.9873C24.7377 59.9127 24.4764 59.7635 24.2524 59.6142C23.6551 59.1665 23.6551 58.7188 24.3457 58.439C26.7163 57.4689 29.0682 57.4316 31.3454 58.7001C31.8867 58.9986 32.3907 59.3531 32.9506 59.5956C33.156 59.6888 33.38 59.8194 33.3053 60.0806C33.2493 60.3231 32.988 60.2671 32.8013 60.2671C32.5213 60.2671 32.2413 60.2671 31.9614 60.2671L31.98 60.2858Z" fill="#91562E"/>
<path d="M21.2662 53.6072C20.2395 53.6259 19.2689 53.402 18.3543 52.9916C18.093 52.8797 17.7383 52.7864 17.701 52.4133C17.6823 52.0589 17.9996 51.891 18.261 51.7604C19.6796 50.9769 21.2102 50.5665 22.8341 50.7904C24.1407 50.9769 25.3726 51.3873 26.5672 51.947C26.7726 52.0402 27.1086 52.0962 27.0339 52.432C26.9779 52.7118 26.7166 52.8237 26.4739 52.8611C24.738 53.0849 23.0394 53.5513 21.2662 53.6072Z" fill="#91562E"/>
<path d="M28.714 56.7971C27.7994 56.8531 26.6421 56.8717 25.5222 57.021C23.9916 57.2262 22.5916 56.7784 21.173 56.3494C20.837 56.2561 20.557 56.0323 20.5197 55.6592C20.501 55.2115 20.8744 55.0809 21.229 54.9503C24.3089 53.7564 27.1461 54.2787 29.778 56.1442C29.9646 56.2748 30.2819 56.424 30.1326 56.7225C30.0206 56.965 29.722 56.7784 29.5166 56.7971C29.33 56.7971 29.1247 56.7971 28.714 56.7971Z" fill="#91562E"/>
<path d="M44.4674 56.9467C43.1235 56.9467 41.9475 57.0773 40.8089 56.8721C38.345 56.4057 35.8251 56.2938 33.3799 55.6409C31.924 55.2491 30.5054 54.7454 29.1054 54.1858C28.5081 53.9433 28.3028 53.5515 28.5455 52.9359C28.9374 51.8913 29.1614 50.8093 29.3481 49.7087C29.6094 48.3283 29.3481 47.0038 28.8814 45.7166C28.6015 44.9145 27.9108 44.8025 27.2015 44.6906C25.2416 44.3548 23.3564 43.7765 21.5644 42.8811C16.8793 40.5679 14.8634 36.352 15.9834 31.2966C16.4687 29.0954 17.2713 27.0807 18.7459 25.3085C20.4818 23.2378 22.7964 22.417 25.3536 22.1559C27.2575 21.9507 29.1428 22.2305 30.972 22.8088C31.5507 22.9953 31.7746 22.8461 31.812 22.2491C31.98 20.2717 32.4466 18.369 33.3799 16.5968C35.2278 13.0897 38.3077 11.3548 42.1155 10.7206C45.7367 10.1236 49.2085 10.6646 52.3817 12.5301C55.4802 14.3582 57.3655 17.1564 58.4854 20.4956C58.9521 21.8947 58.9521 21.932 60.352 21.3351C63.4879 19.9733 66.5864 20.0479 69.3303 22.0812C72.6528 24.5436 74.6687 27.8455 74.762 32.0988C74.818 34.2254 73.6981 35.8297 72.3355 37.3034C71.0475 38.7025 69.4609 39.7658 68.117 41.0903C65.6904 43.4594 64.4212 46.3322 64.2158 49.6714C64.1038 51.3503 64.0852 53.0479 64.5331 54.7081C64.7011 55.3797 64.5145 55.6222 63.7679 55.6782C56.5069 56.2005 49.4325 55.361 42.5635 52.9359C40.3423 52.1524 38.177 51.2197 35.9745 50.1377C36.4971 49.9325 36.8704 50.1377 37.2437 50.2683C40.0623 51.2943 42.9181 52.1338 45.886 52.6002C51.1498 53.4583 56.3949 53.5329 61.584 52.0965C62.3492 51.8913 62.6479 51.5182 62.5919 50.7533C62.4986 49.4475 62.6292 48.1604 62.8346 46.8545C63.1892 44.4108 64.2905 42.3588 66.0637 40.6239C68.173 38.5719 70.0956 36.408 70.9729 33.4978C72.0181 30.0281 70.4502 25.5137 67.4263 23.4617C65.3171 22.0439 63.0586 22.0999 60.7627 22.8088C59.9787 23.0513 59.2321 23.499 58.5041 23.8721C57.8135 24.2265 57.6455 24.1705 57.5521 23.3684C57.3468 21.5589 56.8802 19.8613 55.8909 18.2757C54.1923 15.5335 51.7471 13.8919 48.5925 13.2949C45.4754 12.698 42.3955 12.6047 39.3716 13.8732C36.2544 15.179 34.4998 17.5482 33.6599 20.7008C33.3239 21.988 33.0999 23.2938 33.1559 24.6369C33.1559 24.8608 33.2492 25.1779 32.9693 25.3085C32.7266 25.4204 32.5586 25.2152 32.372 25.1033C26.9962 21.8574 21.0045 23.1632 18.5779 29.6363C17.1966 33.33 18.3539 37.2288 21.4524 40.0083C23.3377 41.7059 25.4656 42.9371 28.0041 43.2915C29.3108 43.4781 29.8707 44.1123 30.1694 45.3622C30.692 47.5821 30.6734 49.8206 30.6174 52.0592C30.6174 52.824 30.804 53.2344 31.588 53.421C32.3346 53.6075 33.0626 53.9246 33.8092 54.1858C36.9264 55.2864 40.0809 56.1818 43.3848 56.5176C43.6088 56.5363 43.8328 56.5922 44.0381 56.6482C44.1127 56.6482 44.1687 56.7415 44.4114 56.9094L44.4674 56.9467Z" fill="#A071AF"/>
<path d="M62.779 36.9491C61.8084 38.3109 60.4831 39.2996 59.1578 40.2509C56.4139 42.2097 53.3901 43.4968 49.9929 43.8326C46.0357 44.243 42.4146 43.217 38.9801 41.3329C37.8788 40.736 36.8148 40.0644 35.8069 39.3182C35.2469 38.9078 34.7429 38.9078 34.1083 39.2622C32.5964 40.1017 30.9351 40.3815 29.1245 40.195C33.1377 38.9265 36.0682 36.6319 37.0015 32.3041C37.2815 33.386 37.3001 34.4307 37.0202 35.4567C36.7962 36.2962 36.4415 37.117 35.8815 37.7512C35.3216 38.3855 35.5456 38.6653 36.1615 38.9638C38.2148 39.9711 40.3427 40.8292 42.6012 41.2956C48.1263 42.4522 53.4834 42.0791 58.5978 39.5421C60.0724 38.8145 61.3977 37.8445 62.779 36.9491Z" fill="#A071AF"/>
<path d="M42.4517 16.2986C43.1236 15.8136 43.8329 15.683 44.5796 15.6457C47.4168 15.4964 49.6567 16.7463 51.5979 18.6304C52.9792 19.9549 53.8565 21.6524 54.7711 23.294C54.8831 23.4992 55.0324 23.7231 54.7711 24.1149C52.0832 19.302 48.3874 16.0561 42.4517 16.2986Z" fill="#A071AF"/>
<path d="M4.05634 81.1228C3.94434 81.1788 3.81368 81.2347 3.70169 81.272C3.57103 81.3094 3.44037 81.328 3.32837 81.328C3.04838 81.328 2.73107 81.2907 2.41375 81.1974C2.09643 81.1041 1.77911 80.9176 1.48046 80.6564C1.1818 80.3953 0.939147 80.0595 0.715157 79.6304C0.491167 79.2014 0.360506 78.6791 0.304509 78.0448C0.229845 77.3919 0.267177 76.7949 0.397838 76.2353C0.528499 75.6757 0.715157 75.172 0.976478 74.7056C1.2378 74.2393 1.55512 73.8289 1.92843 73.4744C2.30175 73.12 2.69373 72.8029 3.12305 72.5417C3.55236 72.2805 3.98168 72.0753 4.44832 71.9261C4.8963 71.7769 5.34428 71.6649 5.77359 71.6276C6.4269 71.553 7.0802 71.553 7.7895 71.6276C8.48014 71.7022 9.15211 71.8515 9.80541 72.094C10.4587 72.3178 11.0934 72.635 11.6907 73.0081C12.288 73.3811 12.8106 73.8475 13.2773 74.3698C13.7439 74.8922 14.1172 75.5078 14.4159 76.1793C14.7145 76.8509 14.8825 77.6157 14.9385 78.4365C14.9945 79.1268 14.9572 79.7797 14.8452 80.3766C14.7145 80.9736 14.5465 81.5146 14.3039 81.9996C14.0612 82.4846 13.7812 82.9136 13.4639 83.2681C13.1466 83.6225 12.7919 83.9397 12.456 84.1822C12.6239 84.3314 12.7733 84.4993 12.9226 84.6672C13.0719 84.8537 13.2026 85.0589 13.3332 85.3014C13.4639 85.5439 13.5572 85.8238 13.6319 86.1409C13.7066 86.458 13.7626 86.8125 13.7999 87.2229C13.8746 88.0623 13.8372 88.8458 13.6879 89.536C13.5386 90.2262 13.3333 90.8605 13.0346 91.4015C12.7359 91.9611 12.3813 92.4275 11.952 92.8379C11.5227 93.2483 11.0747 93.5654 10.5707 93.8266C10.0854 94.0691 9.56275 94.2556 9.04011 94.3489C8.4988 94.4422 7.99483 94.4795 7.47218 94.4235C6.98687 94.3676 6.55756 94.2183 6.14691 93.9758C5.75493 93.7333 5.36295 93.4348 5.0083 93.0991C4.69098 93.4348 4.35499 93.7147 4.00034 93.9012C3.64569 94.0878 3.21638 94.181 2.7684 94.1624C2.50708 94.1624 2.26442 94.0878 2.0031 93.9385C1.74178 93.7893 1.51779 93.6214 1.2938 93.3789C1.06981 93.155 0.864483 92.8939 0.696491 92.5954C0.509833 92.3156 0.379172 92.0171 0.248511 91.7C0.136516 91.4015 0.0618531 91.103 0.0245214 90.8045C-0.0128102 90.5061 -0.0128102 90.2636 0.0618531 90.021C0.136516 89.7785 0.229845 89.6106 0.397838 89.4614C0.56583 89.3122 0.78982 89.2376 1.08847 89.2376C1.36846 89.2376 1.62978 89.2749 1.8911 89.3681C2.13376 89.4614 2.37641 89.592 2.61907 89.7785C2.84306 89.9464 3.08572 90.1516 3.30971 90.3755C3.5337 90.5993 3.75769 90.8232 3.98168 91.0657C4.14967 90.618 4.33633 90.077 4.52298 89.4428C4.70964 88.8085 4.8963 88.1369 5.08296 87.4281C5.26962 86.7005 5.45627 85.9543 5.6616 85.1709C5.84826 84.3874 6.05358 83.6225 6.24024 82.8577C6.4269 82.0928 6.63222 81.3653 6.81888 80.6564C7.0242 79.9476 7.21086 79.3133 7.41619 78.7164C7.62151 78.1381 7.80817 77.6344 8.01349 77.224C8.21882 76.8136 8.40547 76.5151 8.6108 76.3472C8.85345 76.142 9.11478 75.9928 9.39476 75.8995C9.67475 75.8249 9.93607 75.7689 10.1787 75.7503C10.4587 75.7503 10.7574 75.7503 11.0374 75.7876C11.0747 75.7876 11.1307 75.8062 11.168 75.8436C11.2053 75.8809 11.2427 75.9182 11.2613 75.9741C11.28 76.0301 11.2987 76.0861 11.2987 76.142C11.2987 76.198 11.28 76.2726 11.224 76.3099C10.8694 76.739 10.552 77.2613 10.2534 77.8396C9.9734 78.4365 9.69342 79.0708 9.46943 79.761C9.24544 80.4512 9.00278 81.1788 8.79746 81.9436C8.59213 82.7084 8.38681 83.4919 8.20015 84.2754C8.01349 85.0589 7.80817 85.8424 7.62151 86.6259C7.43485 87.4094 7.22953 88.1369 7.00554 88.8458C6.78155 89.5547 6.55756 90.2076 6.29624 90.8232C6.03491 91.4388 5.75493 91.9798 5.43761 92.4461C5.69893 92.6327 5.96025 92.7819 6.24024 92.8939C6.52023 93.0058 6.81888 93.0617 7.1362 93.0617C7.69617 93.0617 8.23748 92.9498 8.76012 92.726C9.28277 92.5021 9.74941 92.185 10.1601 91.7932C10.5707 91.4015 10.944 90.9351 11.224 90.3941C11.504 89.8532 11.728 89.2749 11.8587 88.6593C11.9893 88.0437 12.008 87.3908 11.9146 86.7192C11.84 86.0476 11.6347 85.3574 11.2987 84.6858C11.0187 84.7605 10.7387 84.8164 10.4774 84.7978C10.2161 84.7791 9.99207 84.7418 9.78675 84.6299C9.58142 84.5179 9.41343 84.3687 9.28277 84.1822C9.15211 83.977 9.07744 83.7344 9.04011 83.436C9.02145 83.2308 9.05878 83.0629 9.17077 82.9136C9.28277 82.7644 9.43209 82.6711 9.61875 82.6152C9.80541 82.5779 10.0294 82.5779 10.2721 82.6525C10.5147 82.7271 10.776 82.8577 11.0187 83.0815L11.0747 83.1375C11.5413 82.7831 11.9146 82.3354 12.1946 81.8317C12.4746 81.3094 12.6613 80.7684 12.7733 80.1714C12.8853 79.5745 12.9039 78.9589 12.8293 78.3433C12.7546 77.709 12.6053 77.0934 12.3813 76.4965C12.1573 75.8995 11.8587 75.3399 11.4667 74.7989C11.0747 74.2766 10.6267 73.8102 10.0854 73.4371C9.54409 73.064 8.94678 72.7655 8.27481 72.579C7.60284 72.3738 6.83754 72.3178 6.01625 72.3925C5.41894 72.4484 4.8403 72.5977 4.29899 72.8588C3.75768 73.12 3.29104 73.4744 2.89906 73.9221C2.50708 74.3698 2.20842 74.9295 2.02176 75.601C1.83511 76.2726 1.77911 77.0374 1.85377 77.8956C1.85377 78.0448 1.90977 78.25 1.98443 78.5485C2.0591 78.8469 2.17109 79.1454 2.33908 79.4625C2.50708 79.7797 2.7124 80.0781 2.99239 80.3766C3.27237 80.6751 3.60836 80.8803 4.03767 81.0295L4.05634 81.1228ZM2.97372 92.5021C3.08572 92.5021 3.19771 92.4088 3.30971 92.2783C3.4217 92.1477 3.5337 91.9611 3.64569 91.7186C3.27237 91.3455 2.91772 91.0097 2.58174 90.7299C2.22709 90.4501 1.87244 90.3009 1.48046 90.2636C1.36846 90.2636 1.27513 90.3195 1.21913 90.4314C1.16314 90.562 1.14447 90.7113 1.14447 90.8792C1.14447 91.0657 1.20047 91.2523 1.25647 91.4761C1.33113 91.6813 1.44312 91.8865 1.59245 92.0544C1.74178 92.2223 1.92843 92.3529 2.15242 92.4461C2.37641 92.5394 2.63774 92.5581 2.95505 92.5021H2.97372Z" fill="#A071AF"/>
<path d="M20.3517 77.2428C20.6877 77.2242 20.949 77.2801 21.1544 77.4294C21.3597 77.5786 21.509 77.7651 21.621 78.0077C21.733 78.2502 21.789 78.474 21.8263 78.7352C21.8637 78.9964 21.8637 79.2016 21.8263 79.3881C21.6957 80.4887 21.4717 81.4588 21.117 82.2982C20.7624 83.1377 20.3891 83.8279 19.9598 84.4062C19.5304 84.9845 19.1011 85.4322 18.6531 85.768C18.2052 86.1038 17.8319 86.3276 17.5145 86.4395C17.3839 87.0551 17.2905 87.6707 17.2159 88.3237C17.1412 88.9766 17.1039 89.6481 17.1226 90.3384C17.1226 90.5062 17.1226 90.6555 17.1412 90.8234C17.1412 90.9913 17.1785 91.1218 17.2159 91.2524C17.2532 91.383 17.2905 91.4763 17.3465 91.5509C17.4025 91.6255 17.4772 91.6628 17.5519 91.6628C17.6825 91.6628 17.8319 91.5882 18.0185 91.4203C18.2052 91.2524 18.3918 91.0472 18.5785 90.7861C18.7838 90.5249 18.9705 90.2264 19.1945 89.8906C19.3998 89.5549 19.6051 89.2191 19.8104 88.8646C20.0158 88.5102 20.2024 88.1744 20.3704 87.8386C20.5571 87.5029 20.7064 87.2044 20.837 86.9246C20.9677 86.6447 21.0797 86.4395 21.173 86.253C21.2477 86.0851 21.3037 85.9918 21.3224 85.9732C21.3784 85.8986 21.4344 85.8426 21.4904 85.8053C21.5463 85.768 21.6023 85.8053 21.6397 85.8053C21.677 85.8426 21.7143 85.8986 21.733 85.9918C21.7517 86.0851 21.7517 86.197 21.733 86.3463C21.733 86.3836 21.677 86.4955 21.6023 86.7007C21.5277 86.9059 21.4157 87.1484 21.2664 87.4469C21.117 87.7454 20.949 88.0811 20.7624 88.4729C20.5757 88.846 20.3517 89.2377 20.1277 89.6295C19.9038 90.0212 19.6611 90.3943 19.3998 90.7674C19.1385 91.1405 18.8958 91.4576 18.6158 91.7561C18.3545 92.0359 18.0932 92.2784 17.8319 92.4463C17.5705 92.6142 17.3092 92.7075 17.0479 92.7075C16.9172 92.7075 16.7306 92.6702 16.5252 92.5956C16.3199 92.5209 16.1146 92.3904 15.9279 92.1665C15.7413 91.9426 15.5733 91.6255 15.4426 91.2151C15.312 90.8047 15.2373 90.2637 15.2373 89.5735C15.2373 89.0885 15.2746 88.5475 15.3306 87.9506C15.4053 87.335 15.4986 86.7007 15.6293 86.0478C15.7599 85.3949 15.9093 84.7047 16.0773 84.0144C16.2639 83.3242 16.4506 82.6527 16.6932 81.9997C16.9172 81.3468 17.1785 80.7499 17.4399 80.1716C17.7012 79.5933 17.9998 79.0896 18.3172 78.6606C18.6345 78.2315 18.9518 77.8771 19.3065 77.6159C19.6424 77.3547 19.9971 77.2055 20.3704 77.1869L20.3517 77.2428ZM20.4264 79.4254C20.2584 79.6866 20.0531 80.0037 19.8291 80.4141C19.6051 80.8059 19.3624 81.2722 19.1011 81.8132C18.8585 82.3355 18.5972 82.9325 18.3545 83.5667C18.1118 84.201 17.8878 84.9099 17.7012 85.6374C18.0372 85.4882 18.3732 85.227 18.7465 84.8166C19.1198 84.4062 19.4744 83.9212 19.8104 83.3429C20.1464 82.7646 20.4637 82.1117 20.7251 81.3841C21.005 80.6566 21.1917 79.9104 21.3224 79.1083C21.3597 78.8658 21.341 78.7352 21.285 78.7165C21.2104 78.6792 21.1357 78.7165 21.0237 78.7912C20.9117 78.8658 20.7997 78.9777 20.6877 79.1083C20.5757 79.2389 20.4824 79.3508 20.4264 79.4441V79.4254Z" fill="#A071AF"/>
<path d="M21.3598 84.4061C21.3225 84.2942 21.3598 84.2196 21.4345 84.2382C21.5092 84.2569 21.6212 84.2942 21.7518 84.3688C21.8825 84.4621 22.0318 84.574 22.1998 84.7419C22.3678 84.9098 22.5171 85.0777 22.6478 85.2642C22.7971 85.4508 22.9091 85.656 23.0024 85.8612C23.0958 86.0664 23.1331 86.2716 23.1331 86.4395C23.1331 86.4954 23.1144 86.626 23.0584 86.8126C23.0211 86.9991 22.9464 87.223 22.8718 87.4655C22.7971 87.7266 22.7038 88.0065 22.6291 88.3049C22.5358 88.6034 22.4424 88.9205 22.3678 89.2377C22.2745 89.5548 22.1998 89.8533 22.1251 90.1331C22.0505 90.4129 21.9945 90.6741 21.9571 90.8793C21.9198 91.0845 21.9011 91.2151 21.8825 91.327C21.8825 91.4203 21.8825 91.4762 21.8825 91.4949C21.9011 91.4949 21.9385 91.4949 21.9945 91.4576C22.0505 91.4203 22.1251 91.3456 22.2371 91.271C22.4984 91.0658 22.7598 90.8046 23.0211 90.4875C23.2824 90.1704 23.5064 89.8533 23.7304 89.5175C23.9544 89.1817 24.1597 88.8273 24.3464 88.4915C24.533 88.1557 24.701 87.8199 24.8317 87.5401C24.981 87.2603 25.093 86.9991 25.1677 86.7939C25.261 86.5887 25.317 86.4581 25.3356 86.4022C25.4476 86.1783 25.541 86.0477 25.6343 85.9918C25.7276 85.9358 25.7836 85.9545 25.8396 86.0104C25.8956 86.0664 25.9143 86.1783 25.9143 86.3462C25.9143 86.4954 25.877 86.682 25.8023 86.8685C25.709 87.1297 25.5596 87.4655 25.3916 87.8572C25.2237 88.249 25.0183 88.6594 24.7757 89.0698C24.533 89.4988 24.2717 89.9279 23.9917 90.3383C23.7117 90.7673 23.3944 91.1404 23.0771 91.4762C22.7598 91.812 22.4424 92.0918 22.0878 92.297C21.7518 92.5022 21.4158 92.6142 21.0798 92.6142C21.0052 92.6142 20.8932 92.5955 20.7812 92.5582C20.6692 92.5209 20.5572 92.4463 20.4452 92.353C20.3332 92.2597 20.2399 92.1105 20.1652 91.9239C20.0906 91.7374 20.0532 91.4949 20.0532 91.2151C20.0532 91.1591 20.0906 90.9912 20.1839 90.7114C20.2585 90.4316 20.3705 90.0958 20.5012 89.704C20.6319 89.3123 20.7625 88.8646 20.8932 88.3796C21.0238 87.8945 21.1358 87.4095 21.2292 86.9245C21.3225 86.4395 21.3972 85.9731 21.4345 85.5254C21.4718 85.0777 21.4532 84.7046 21.3785 84.3875L21.3598 84.4061ZM22.2745 82.9511C22.2931 82.7645 22.3305 82.578 22.4051 82.4101C22.4611 82.2422 22.5358 82.0929 22.6104 81.9624C22.6851 81.8318 22.7784 81.7385 22.8718 81.6639C22.9651 81.5893 23.0584 81.552 23.1517 81.552C23.2451 81.552 23.3197 81.5893 23.3944 81.6639C23.4691 81.7385 23.5251 81.8318 23.5624 81.9624C23.5997 82.0929 23.6371 82.2422 23.6371 82.4101C23.6371 82.578 23.6371 82.7645 23.6184 82.9511C23.5811 83.1376 23.5437 83.3242 23.4691 83.492C23.4131 83.6599 23.3384 83.8092 23.2451 83.9398C23.1704 84.0703 23.0771 84.1636 22.9838 84.2382C22.8904 84.3128 22.7971 84.3502 22.7038 84.3502C22.6104 84.3502 22.5358 84.3128 22.4611 84.2382C22.3864 84.1636 22.3305 84.0703 22.2931 83.9398C22.2558 83.8092 22.2371 83.6599 22.2185 83.492C22.2185 83.3242 22.2185 83.1376 22.2558 82.9511H22.2745Z" fill="#A071AF"/>
<path d="M25.3914 85.8797C25.3914 85.4693 25.4101 85.1149 25.5034 84.8164C25.5968 84.5179 25.7274 84.2754 25.8768 84.0702C26.0261 83.865 26.2127 83.6971 26.3994 83.5665C26.5861 83.4359 26.7727 83.3427 26.9594 83.268C27.146 83.1934 27.2954 83.1375 27.4447 83.1188C27.594 83.0815 27.6873 83.0628 27.7433 83.0442C27.874 83.0069 27.9673 83.0442 28.0607 83.1002C28.154 83.1561 28.2286 83.2494 28.266 83.3427C28.3033 83.4359 28.322 83.5479 28.3033 83.6411C28.2846 83.7531 28.21 83.8277 28.1167 83.865C28.0793 83.865 28.0233 83.9396 27.9487 84.0329C27.874 84.1448 27.7993 84.2567 27.7247 84.4246C27.65 84.5739 27.5753 84.7604 27.5193 84.947C27.4633 85.1335 27.426 85.3387 27.4073 85.5439C27.37 85.973 27.3887 86.458 27.4073 87.0363C27.4447 87.5959 27.482 88.1929 27.5007 88.8085C27.7993 88.6219 28.0793 88.4167 28.3593 88.2115C28.6393 88.0063 28.9006 87.7825 29.1246 87.54C29.3673 87.2974 29.5726 87.0549 29.7406 86.7938C29.9272 86.5326 30.0579 86.2341 30.1512 85.9357C30.2072 85.7491 30.2819 85.6372 30.3565 85.5999C30.4499 85.5626 30.5245 85.5626 30.5992 85.5999C30.6739 85.6558 30.7112 85.7491 30.7485 85.8797C30.7672 86.0103 30.7485 86.1782 30.6925 86.3647C30.5992 86.6632 30.4312 86.9617 30.2259 87.2601C30.0206 87.5586 29.7592 87.8384 29.4793 88.1369C29.1993 88.4167 28.8819 88.6965 28.546 88.9764C28.21 89.2375 27.874 89.4987 27.538 89.7598C27.538 90.2076 27.5007 90.618 27.4447 91.0284C27.3887 91.4388 27.2954 91.8119 27.146 92.1476C26.9967 92.4834 26.81 92.7632 26.5674 92.9871C26.3247 93.2109 26.0074 93.3788 25.6154 93.4535C25.3354 93.5094 25.0928 93.5094 24.8688 93.4535C24.6635 93.3788 24.4768 93.2669 24.3462 93.099C24.2155 92.9311 24.1222 92.7446 24.0662 92.5207C24.0102 92.2969 24.0102 92.0544 24.0475 91.8119C24.0848 91.5693 24.1595 91.3268 24.2902 91.103C24.4208 90.8605 24.5888 90.6553 24.8128 90.4874C24.9248 90.3941 25.0555 90.3008 25.1861 90.2262C25.3168 90.1329 25.4661 90.0583 25.6154 89.965C25.6154 89.5546 25.6154 89.1069 25.5781 88.6592C25.5594 88.2115 25.5221 87.8011 25.4848 87.4094C25.4474 87.0176 25.4101 86.7005 25.3914 86.4207C25.3728 86.1409 25.3541 85.9543 25.3541 85.8797H25.3914ZM25.1115 92.2596C25.2421 92.2223 25.3541 92.1103 25.4288 91.9051C25.5034 91.6999 25.5594 91.4574 25.5968 91.1403L25.2048 91.4201C25.0555 91.5507 24.9248 91.6626 24.8315 91.7932C24.7381 91.9238 24.6821 92.0171 24.6635 92.1103C24.6635 92.2036 24.6635 92.2596 24.7381 92.2969C24.8128 92.3342 24.9248 92.3155 25.0741 92.2596H25.1115Z" fill="#A071AF"/>
<path d="M30.0575 85.8797C30.0575 85.4693 30.0761 85.1149 30.1695 84.8164C30.2628 84.5179 30.3934 84.2754 30.5428 84.0702C30.6921 83.865 30.8788 83.6971 31.0654 83.5665C31.2521 83.4359 31.4387 83.3427 31.6254 83.268C31.812 83.1934 31.9614 83.1375 32.1107 83.1188C32.26 83.0815 32.3534 83.0628 32.4093 83.0442C32.54 83.0069 32.6333 83.0442 32.7267 83.1002C32.82 83.1561 32.8947 83.2494 32.932 83.3427C32.9693 83.4359 32.988 83.5479 32.9693 83.6411C32.9507 83.7531 32.876 83.8277 32.7827 83.865C32.7453 83.865 32.6893 83.9396 32.6147 84.0329C32.54 84.1448 32.4653 84.2567 32.3907 84.4246C32.316 84.5739 32.2414 84.7604 32.1854 84.947C32.1294 85.1335 32.092 85.3387 32.0734 85.5439C32.036 85.973 32.0547 86.458 32.0734 87.0363C32.1107 87.5959 32.148 88.1929 32.1667 88.8085C32.4653 88.6219 32.7453 88.4167 33.0253 88.2115C33.3053 88.0063 33.5666 87.7825 33.7906 87.54C34.0333 87.2974 34.2386 87.0549 34.4066 86.7938C34.5933 86.5326 34.7239 86.2341 34.8172 85.9357C34.8732 85.7491 34.9479 85.6372 35.0226 85.5999C35.1159 85.5626 35.1906 85.5626 35.2652 85.5999C35.3399 85.6558 35.3772 85.7491 35.4145 85.8797C35.4332 86.0103 35.4145 86.1782 35.3585 86.3647C35.2652 86.6632 35.0972 86.9617 34.8919 87.2601C34.6866 87.5586 34.4253 87.8384 34.1453 88.1369C33.8653 88.4167 33.548 88.6965 33.212 88.9764C32.876 89.2375 32.54 89.4987 32.204 89.7598C32.204 90.2076 32.1667 90.618 32.1107 91.0284C32.0547 91.4388 31.9614 91.8119 31.812 92.1476C31.6627 92.4834 31.4761 92.7632 31.2334 92.9871C30.9907 93.2109 30.6734 93.3788 30.2814 93.4535C30.0015 93.5094 29.7588 93.5094 29.5348 93.4535C29.3295 93.3788 29.1428 93.2669 29.0122 93.099C28.8815 92.9311 28.7882 92.7446 28.7322 92.5207C28.6762 92.2969 28.6762 92.0544 28.7135 91.8119C28.7508 91.5693 28.8255 91.3268 28.9562 91.103C29.0868 90.8605 29.2548 90.6553 29.4788 90.4874C29.5908 90.3941 29.7215 90.3008 29.8521 90.2262C29.9828 90.1329 30.1321 90.0583 30.2814 89.965C30.2814 89.5546 30.2814 89.1069 30.2441 88.6592C30.2254 88.2115 30.1881 87.8011 30.1508 87.4094C30.1135 87.0176 30.0761 86.7005 30.0575 86.4207C30.0388 86.1409 30.0201 85.9543 30.0201 85.8797H30.0575ZM29.7775 92.2596C29.9081 92.2223 30.0201 92.1103 30.0948 91.9051C30.1695 91.6999 30.2254 91.4574 30.2628 91.1403L29.8708 91.4201C29.7215 91.5507 29.5908 91.6626 29.4975 91.7932C29.4042 91.9238 29.3482 92.0171 29.3295 92.1103C29.3295 92.2036 29.3295 92.2596 29.4042 92.2969C29.4788 92.3342 29.5908 92.3155 29.7401 92.2596H29.7775Z" fill="#A071AF"/>
<path d="M35.6014 87.1483C35.5267 87.3908 35.4334 87.6146 35.3587 87.8571C35.284 88.0997 35.2094 88.3235 35.1347 88.566C35.5454 88.6593 35.9747 88.7153 36.4413 88.7153C36.8893 88.7153 37.3373 88.6593 37.7853 88.4914C38.2146 88.3235 38.6252 88.0623 39.0172 87.6893C39.4092 87.3162 39.7265 86.7752 39.9878 86.1036C40.0252 86.029 40.0625 85.973 40.1185 85.9917C40.1745 86.0103 40.2305 86.029 40.2865 86.0663C40.3425 86.1036 40.3798 86.1596 40.4171 86.2342C40.4545 86.3088 40.4545 86.3461 40.4545 86.3834C40.2305 87.0177 39.9505 87.54 39.6332 87.9504C39.3159 88.3608 38.9612 88.6966 38.6066 88.9391C38.2332 89.1816 37.8786 89.3495 37.5053 89.4614C37.132 89.5734 36.7773 89.6293 36.4413 89.648C36.1053 89.6666 35.8067 89.648 35.5267 89.6293C35.2467 89.592 35.0414 89.5547 34.8921 89.5174L34.8174 89.7599C34.9854 90.0957 35.116 90.4874 35.228 90.9725C35.34 91.4575 35.4147 91.9798 35.4707 92.5395C35.5267 93.0991 35.5454 93.6774 35.5454 94.293C35.5454 94.8899 35.4894 95.4869 35.4334 96.0652C35.3587 96.6435 35.2654 97.1844 35.1347 97.6881C35.004 98.1918 34.8361 98.6209 34.6494 98.9939C34.4441 99.367 34.2201 99.6282 33.9588 99.8147C33.6974 100.001 33.3988 100.039 33.0815 99.964C32.9881 99.9453 32.8761 99.8894 32.7828 99.7961C32.6895 99.7028 32.5775 99.5909 32.4842 99.423C32.3908 99.2738 32.3162 99.0872 32.2415 98.8634C32.1668 98.6395 32.1295 98.397 32.1108 98.1172C32.0548 97.6135 32.0548 97.0166 32.1108 96.3263C32.1668 95.6361 32.2602 94.8899 32.3722 94.0878C32.4842 93.2856 32.6522 92.4462 32.8388 91.5694C33.0255 90.6926 33.2308 89.7972 33.4548 88.8832C33.2681 88.7526 33.0628 88.6593 32.8575 88.5847C32.7642 88.566 32.7082 88.4914 32.6708 88.3795C32.6335 88.2676 32.6335 88.1556 32.6335 88.0623C32.6335 87.9504 32.6895 87.8758 32.7642 87.8012C32.8388 87.7266 32.9321 87.7266 33.0441 87.7639C33.0441 87.7639 33.1188 87.8012 33.2308 87.8571C33.3428 87.9131 33.4921 87.9877 33.6601 88.0623L34.1081 86.3275L34.3134 85.5813C34.1641 85.4134 34.0521 85.2642 33.9774 85.1149C33.9028 84.9657 33.8468 84.8538 33.8281 84.7791C33.7721 84.5739 33.7534 84.4247 33.7534 84.3501C33.7534 84.2755 33.8094 84.2568 33.9028 84.2941C33.9401 84.2941 34.0148 84.3874 34.1081 84.518C34.2014 84.6486 34.3321 84.7978 34.4814 84.9843C34.7801 83.977 35.116 83.0256 35.4707 82.1115C35.8253 81.1975 36.1987 80.3953 36.5906 79.6864C36.9826 78.9776 37.3746 78.4179 37.7853 78.0075C38.1959 77.5785 38.5879 77.3733 38.9799 77.336C39.3159 77.2986 39.5585 77.3733 39.7452 77.5225C39.9318 77.6717 40.0625 77.8956 40.1558 78.1568C40.2491 78.4179 40.3051 78.6977 40.3238 79.0335C40.3425 79.3507 40.3611 79.6678 40.3798 79.9663C40.3798 80.5819 40.3238 81.1788 40.2118 81.7384C40.0812 82.2981 39.9132 82.8391 39.7078 83.3241C39.5025 83.8091 39.2412 84.2755 38.9612 84.6672C38.6812 85.0776 38.3826 85.4134 38.1026 85.7119C37.8039 85.9917 37.5053 86.2155 37.2066 86.3834C36.908 86.5513 36.6466 86.6259 36.404 86.6259C36.236 86.6259 36.068 86.6259 35.9 86.5886C35.8627 86.7006 35.8253 86.7938 35.788 86.8871C35.7507 86.9804 35.7133 87.0737 35.676 87.1856L35.6014 87.1483ZM33.5854 98.9007C33.7534 98.9939 33.9401 98.938 34.0894 98.7141C34.2574 98.4903 34.4067 98.1545 34.5374 97.7254C34.6681 97.2777 34.7801 96.7554 34.8547 96.1584C34.9294 95.5615 34.9854 94.9272 35.004 94.2743C35.004 93.6214 34.9854 92.9685 34.9107 92.3343C34.8361 91.6813 34.7054 91.0844 34.5187 90.5434C34.2201 91.5694 33.9774 92.5768 33.7534 93.5281C33.5481 94.4795 33.3988 95.3376 33.2868 96.0838C33.1935 96.8487 33.1561 97.4643 33.1935 97.9679C33.2308 98.4716 33.3615 98.7701 33.5668 98.9007H33.5854ZM39.3719 78.735C39.3719 78.735 39.1292 78.9589 38.9052 79.3507C38.6812 79.7424 38.4199 80.2461 38.1026 80.899C37.8039 81.5519 37.4493 82.2981 37.0946 83.1562C36.7213 84.0143 36.3667 84.9097 36.0307 85.8798H36.1987C36.516 85.8798 36.8333 85.7492 37.132 85.5253C37.4306 85.3015 37.7106 85.0217 37.9906 84.6859C38.2519 84.3314 38.4946 83.9583 38.7185 83.5106C38.9425 83.0816 39.1292 82.6339 39.2972 82.1862C39.4652 81.7384 39.5772 81.3094 39.6705 80.899C39.7638 80.4886 39.8198 80.1155 39.8198 79.7984C39.8198 79.6305 39.8198 79.4999 39.7825 79.3507C39.7638 79.2201 39.7265 79.1081 39.6705 78.9962C39.6332 78.9029 39.5772 78.8283 39.5212 78.7724C39.4652 78.7164 39.4278 78.6977 39.3719 78.7164V78.735Z" fill="#A071AF"/>
<path d="M40.1931 84.5925C40.1931 84.4246 40.2865 84.35 40.4545 84.406C40.6038 84.4619 40.7718 84.5738 40.9584 84.7604C41.1451 84.9469 41.2944 85.1708 41.4438 85.4506C41.5931 85.7304 41.6491 85.9916 41.6491 86.2714C41.6491 86.3274 41.6491 86.458 41.6117 86.6632C41.5931 86.8684 41.5558 87.0922 41.4998 87.372C41.4438 87.6519 41.4064 87.9503 41.3504 88.2861C41.2944 88.6219 41.2384 88.9577 41.1824 89.2748C41.1264 89.5919 41.0704 89.9091 41.0144 90.2075C40.9584 90.506 40.9211 90.7672 40.8838 90.9724C40.8091 91.3641 40.7905 91.588 40.8465 91.6253C40.9024 91.6812 41.0331 91.6253 41.2571 91.4574C41.5184 91.2522 41.7611 90.991 41.9664 90.6926C42.1904 90.3941 42.3957 90.077 42.5824 89.7412C42.769 89.4054 42.937 89.051 43.0863 88.7152C43.2357 88.3607 43.3663 88.0436 43.4783 87.7265C43.5717 87.3534 43.665 86.9989 43.7397 86.6632C43.8143 86.3087 43.9076 85.9916 43.9636 85.7118C44.0383 85.432 44.0943 85.1708 44.1316 84.9656C44.169 84.7604 44.2063 84.6112 44.2063 84.5179C44.2063 84.3873 44.2623 84.3313 44.337 84.3127C44.4116 84.3127 44.505 84.3127 44.6169 84.3873C44.7289 84.4433 44.8409 84.5552 44.9716 84.6858C45.1023 84.8164 45.2143 84.9656 45.3076 85.1335C45.4196 85.3014 45.4942 85.4693 45.5689 85.6558C45.6249 85.8424 45.6622 86.0289 45.6622 86.2155C45.6622 86.2714 45.6436 86.402 45.5876 86.5885C45.5316 86.7751 45.4756 86.9989 45.4009 87.2601C45.3262 87.5213 45.2516 87.8011 45.1583 88.1182C45.0649 88.4354 44.9716 88.7525 44.8969 89.051C44.8223 89.3681 44.7289 89.6666 44.6543 89.9464C44.5796 90.2262 44.5236 90.4874 44.4863 90.6926C44.449 90.8978 44.4303 91.047 44.4303 91.1589C44.4303 91.2708 44.4303 91.3455 44.4676 91.3828C44.4863 91.4201 44.5423 91.4201 44.5983 91.3828C44.6543 91.3455 44.7476 91.2895 44.8409 91.2149C45.1023 91.0097 45.3636 90.7485 45.6249 90.4314C45.8862 90.1143 46.1102 89.7971 46.3342 89.4427C46.5582 89.1069 46.7635 88.7525 46.9502 88.398C47.1368 88.0436 47.3048 87.7265 47.4355 87.4467C47.5848 87.1668 47.6968 86.9057 47.7715 86.7191C47.8648 86.5139 47.9208 86.3833 47.9395 86.346C48.0328 86.1408 48.1261 86.0103 48.2194 85.9543C48.3128 85.8983 48.3688 85.917 48.4248 85.9729C48.4621 86.0289 48.4994 86.1408 48.4994 86.2901C48.4994 86.4393 48.4621 86.6072 48.3874 86.7937C48.2941 87.0549 48.1448 87.3907 47.9768 87.7824C47.8088 88.1742 47.6035 88.5846 47.3608 89.0136C47.1182 89.4427 46.8568 89.8718 46.5769 90.2822C46.2969 90.7112 45.9982 91.0843 45.6622 91.4201C45.3449 91.7559 45.0089 92.0357 44.6729 92.2409C44.337 92.4461 44.001 92.558 43.665 92.558C43.5903 92.558 43.4783 92.5394 43.3663 92.5021C43.2543 92.4647 43.1423 92.3901 43.0304 92.2782C42.9184 92.1663 42.825 92.0357 42.7504 91.8491C42.6757 91.6626 42.6384 91.4387 42.6197 91.1403C42.6197 91.047 42.6757 90.7858 42.7877 90.3381C42.601 90.6739 42.3957 90.991 42.1717 91.2895C41.9477 91.588 41.7237 91.8491 41.4998 92.073C41.2758 92.2969 41.0331 92.4834 40.7905 92.614C40.5478 92.7446 40.2865 92.8192 40.0252 92.8192C39.9505 92.8192 39.8385 92.8005 39.7265 92.7632C39.6145 92.7259 39.5025 92.6513 39.3905 92.558C39.2785 92.4647 39.1852 92.3155 39.1105 92.129C39.0359 91.9424 38.9985 91.6999 38.9985 91.4201C38.9985 91.3641 39.0172 91.1589 39.0732 90.8418C39.1292 90.506 39.1852 90.1143 39.2785 89.6479C39.3532 89.1815 39.4465 88.6779 39.5398 88.1369C39.6332 87.5959 39.7265 87.0922 39.8198 86.6072C39.9132 86.1222 39.9878 85.6931 40.0438 85.3387C40.0998 84.9656 40.1372 84.7231 40.1558 84.6112L40.1931 84.5925Z" fill="#A071AF"/>
<path d="M52.382 77.2428C52.718 77.2242 52.9793 77.2801 53.1846 77.4294C53.39 77.5786 53.5393 77.7651 53.6513 78.0077C53.7633 78.2502 53.8193 78.474 53.8566 78.7352C53.8939 78.9964 53.8939 79.2016 53.8566 79.3881C53.726 80.4887 53.502 81.4588 53.1473 82.2982C52.7927 83.1377 52.4193 83.8279 51.99 84.4062C51.5607 84.9845 51.1314 85.4322 50.6834 85.768C50.2354 86.1038 49.8621 86.3276 49.5448 86.4395C49.4141 87.0551 49.3208 87.6707 49.2462 88.3237C49.1715 88.9766 49.1342 89.6481 49.1528 90.3384C49.1528 90.5062 49.1528 90.6555 49.1715 90.8234C49.1715 90.9913 49.2088 91.1218 49.2462 91.2524C49.2835 91.383 49.3208 91.4763 49.3768 91.5509C49.4328 91.6255 49.5075 91.6628 49.5821 91.6628C49.7128 91.6628 49.8621 91.5882 50.0488 91.4203C50.2354 91.2524 50.4221 91.0472 50.6088 90.7861C50.8141 90.5249 51.0007 90.2264 51.2247 89.8906C51.4301 89.5549 51.6354 89.2191 51.8407 88.8646C52.046 88.5102 52.2327 88.1744 52.4007 87.8386C52.5873 87.5029 52.7367 87.2044 52.8673 86.9246C52.998 86.6447 53.11 86.4395 53.2033 86.253C53.278 86.0851 53.334 85.9918 53.3526 85.9732C53.4086 85.8986 53.4646 85.8426 53.5206 85.8053C53.5766 85.768 53.6326 85.8053 53.67 85.8053C53.7073 85.8426 53.7446 85.8986 53.7633 85.9918C53.7819 86.0851 53.7819 86.197 53.7633 86.3463C53.7633 86.3836 53.7073 86.4955 53.6326 86.7007C53.558 86.9059 53.446 87.1484 53.2966 87.4469C53.1473 87.7454 52.9793 88.0811 52.7927 88.4729C52.606 88.846 52.382 89.2377 52.158 89.6295C51.934 90.0212 51.6914 90.3943 51.4301 90.7674C51.1687 91.1405 50.9261 91.4576 50.6461 91.7561C50.3848 92.0359 50.1234 92.2784 49.8621 92.4463C49.6008 92.6142 49.3395 92.7075 49.0782 92.7075C48.9475 92.7075 48.7608 92.6702 48.5555 92.5956C48.3502 92.5209 48.1449 92.3904 47.9582 92.1665C47.7716 91.9426 47.6036 91.6255 47.4729 91.2151C47.3422 90.8047 47.2676 90.2637 47.2676 89.5735C47.2676 89.0885 47.3049 88.5475 47.3609 87.9506C47.4356 87.335 47.5289 86.7007 47.6596 86.0478C47.7902 85.3949 47.9395 84.7047 48.1075 84.0144C48.2942 83.3242 48.4809 82.6527 48.7235 81.9997C48.9475 81.3468 49.2088 80.7499 49.4701 80.1716C49.7315 79.5933 50.0301 79.0896 50.3474 78.6606C50.6648 78.2315 50.9821 77.8771 51.3367 77.6159C51.6727 77.3547 52.0274 77.2055 52.4007 77.1869L52.382 77.2428ZM52.4567 79.4254C52.2887 79.6866 52.0834 80.0037 51.8594 80.4141C51.6354 80.8059 51.3927 81.2722 51.1314 81.8132C50.8887 82.3355 50.6274 82.9325 50.3848 83.5667C50.1421 84.201 49.9181 84.9099 49.7315 85.6374C50.0674 85.4882 50.4034 85.227 50.7767 84.8166C51.1501 84.4062 51.5047 83.9212 51.8407 83.3429C52.1767 82.7646 52.494 82.1117 52.7553 81.3841C53.0353 80.6566 53.222 79.9104 53.3526 79.1083C53.39 78.8658 53.3713 78.7352 53.3153 78.7165C53.2406 78.6792 53.166 78.7165 53.054 78.7912C52.942 78.8658 52.83 78.9777 52.718 79.1083C52.606 79.2389 52.5127 79.3508 52.4567 79.4441V79.4254Z" fill="#A071AF"/>
<path d="M61.7897 81.1228C61.6777 81.1788 61.5471 81.2347 61.4351 81.272C61.3044 81.3094 61.1738 81.328 61.0618 81.328C60.7818 81.328 60.4645 81.2907 60.1471 81.1974C59.8298 81.1041 59.5125 80.9176 59.2139 80.6564C58.9152 80.3953 58.6725 80.0595 58.4486 79.6304C58.2246 79.2014 58.0939 78.6791 58.0379 78.0448C57.9632 77.3919 58.0006 76.7949 58.1312 76.2353C58.2619 75.6757 58.4486 75.172 58.7099 74.7056C58.9712 74.2393 59.2885 73.8289 59.6618 73.4744C60.0352 73.12 60.4271 72.8029 60.8564 72.5417C61.2858 72.2805 61.7151 72.0753 62.1817 71.9261C62.6297 71.7769 63.0777 71.6649 63.507 71.6276C64.1603 71.553 64.8136 71.553 65.5229 71.6276C66.2135 71.7022 66.8855 71.8515 67.5388 72.094C68.1921 72.3178 68.8267 72.635 69.4241 73.0081C70.0214 73.3811 70.544 73.8475 71.0107 74.3698C71.4773 74.8922 71.8506 75.5078 72.1493 76.1793C72.4479 76.8509 72.6159 77.6157 72.6719 78.4365C72.7279 79.1268 72.6906 79.7797 72.5786 80.3766C72.4479 80.9736 72.2799 81.5146 72.0373 81.9996C71.7946 82.4846 71.5146 82.9136 71.1973 83.2681C70.88 83.6225 70.5253 83.9397 70.1894 84.1822C70.3573 84.3314 70.5067 84.4993 70.656 84.6672C70.8053 84.8537 70.936 85.0589 71.0666 85.3014C71.1973 85.5439 71.2906 85.8238 71.3653 86.1409C71.44 86.458 71.496 86.8125 71.5333 87.2229C71.608 88.0623 71.5706 88.8458 71.4213 89.536C71.272 90.2262 71.0666 90.8605 70.768 91.4015C70.4693 91.9611 70.1147 92.4275 69.6854 92.8379C69.2561 93.2483 68.8081 93.5654 68.3041 93.8266C67.8188 94.0691 67.2962 94.2556 66.7735 94.3489C66.2322 94.4422 65.7282 94.4795 65.2056 94.4235C64.7203 94.3676 64.291 94.2183 63.8803 93.9758C63.4883 93.7333 63.0963 93.4348 62.7417 93.0991C62.4244 93.4348 62.0884 93.7147 61.7337 93.9012C61.3791 94.0878 60.9498 94.181 60.5018 94.1624C60.2405 94.1624 59.9978 94.0878 59.7365 93.9385C59.4752 93.7893 59.2512 93.6214 59.0272 93.3789C58.8032 93.155 58.5979 92.8939 58.4299 92.5954C58.2432 92.3156 58.1126 92.0171 57.9819 91.7C57.8699 91.4015 57.7953 91.103 57.7579 90.8045C57.7206 90.5061 57.7206 90.2636 57.7953 90.021C57.8699 89.7785 57.9632 89.6106 58.1312 89.4614C58.2992 89.3122 58.5232 89.2376 58.8219 89.2376C59.1019 89.2376 59.3632 89.2749 59.6245 89.3681C59.8672 89.4614 60.1098 89.592 60.3525 89.7785C60.5765 89.9464 60.8191 90.1516 61.0431 90.3755C61.2671 90.5993 61.4911 90.8232 61.7151 91.0657C61.8831 90.618 62.0697 90.077 62.2564 89.4428C62.443 88.8085 62.6297 88.1369 62.8164 87.4281C63.003 86.7005 63.1897 85.9543 63.395 85.1709C63.5817 84.3874 63.787 83.6225 63.9736 82.8577C64.1603 82.0928 64.3656 81.3653 64.5523 80.6564C64.7576 79.9476 64.9443 79.3133 65.1496 78.7164C65.3549 78.1381 65.5416 77.6344 65.7469 77.224C65.9522 76.8136 66.1389 76.5151 66.3442 76.3472C66.5869 76.142 66.8482 75.9928 67.1282 75.8995C67.4081 75.8249 67.6695 75.7689 67.9121 75.7503C68.1921 75.7503 68.4908 75.7503 68.7708 75.7876C68.8081 75.7876 68.8641 75.8062 68.9014 75.8436C68.9387 75.8809 68.9761 75.9182 68.9947 75.9741C69.0134 76.0301 69.0321 76.0861 69.0321 76.142C69.0321 76.198 69.0134 76.2726 68.9574 76.3099C68.6028 76.739 68.2854 77.2613 67.9868 77.8396C67.7068 78.4365 67.4268 79.0708 67.2028 79.761C66.9788 80.4512 66.7362 81.1788 66.5309 81.9436C66.3255 82.7084 66.1202 83.4919 65.9335 84.2754C65.7469 85.0589 65.5416 85.8424 65.3549 86.6259C65.1682 87.4094 64.9629 88.1369 64.7389 88.8458C64.5149 89.5547 64.291 90.2076 64.0296 90.8232C63.7683 91.4388 63.4883 91.9798 63.171 92.4461C63.4323 92.6327 63.6937 92.7819 63.9736 92.8939C64.2536 93.0058 64.5523 93.0617 64.8696 93.0617C65.4296 93.0617 65.9709 92.9498 66.4935 92.726C67.0162 92.5021 67.4828 92.185 67.8935 91.7932C68.3041 91.4015 68.6774 90.9351 68.9574 90.3941C69.2374 89.8532 69.4614 89.2749 69.592 88.6593C69.7227 88.0437 69.7414 87.3908 69.6481 86.7192C69.5734 86.0476 69.3681 85.3574 69.0321 84.6858C68.7521 84.7605 68.4721 84.8164 68.2108 84.7978C67.9495 84.7791 67.7255 84.7418 67.5201 84.6299C67.3148 84.5179 67.1468 84.3687 67.0162 84.1822C66.8855 83.977 66.8108 83.7344 66.7735 83.436C66.7548 83.2308 66.7922 83.0629 66.9042 82.9136C67.0162 82.7644 67.1655 82.6711 67.3521 82.6152C67.5388 82.5779 67.7628 82.5779 68.0055 82.6525C68.2481 82.7271 68.5094 82.8577 68.7521 83.0815L68.8081 83.1375C69.2747 82.7831 69.648 82.3354 69.928 81.8317C70.208 81.3094 70.3947 80.7684 70.5067 80.1714C70.6187 79.5745 70.6373 78.9589 70.5627 78.3433C70.488 77.709 70.3387 77.0934 70.1147 76.4965C69.8907 75.8995 69.592 75.3399 69.2001 74.7989C68.8081 74.2766 68.3601 73.8102 67.8188 73.4371C67.2775 73.064 66.6802 72.7655 66.0082 72.579C65.3362 72.3738 64.5709 72.3178 63.7496 72.3925C63.1523 72.4484 62.5737 72.5977 62.0324 72.8588C61.4911 73.12 61.0244 73.4744 60.6325 73.9221C60.2405 74.3698 59.9418 74.9295 59.7552 75.601C59.5685 76.2726 59.5125 77.0374 59.5872 77.8956C59.5872 78.0448 59.6432 78.25 59.7178 78.5485C59.7925 78.8469 59.9045 79.1454 60.0725 79.4625C60.2405 79.7797 60.4458 80.0781 60.7258 80.3766C61.0058 80.6751 61.3418 80.8803 61.7711 81.0295L61.7897 81.1228ZM60.7071 92.5021C60.8191 92.5021 60.9311 92.4088 61.0431 92.2783C61.1551 92.1477 61.2671 91.9611 61.3791 91.7186C61.0058 91.3455 60.6511 91.0097 60.3151 90.7299C59.9605 90.4501 59.6058 90.3009 59.2139 90.2636C59.1019 90.2636 59.0085 90.3195 58.9525 90.4314C58.8965 90.562 58.8779 90.7113 58.8779 90.8792C58.8779 91.0657 58.9339 91.2523 58.9899 91.4761C59.0645 91.6813 59.1765 91.8865 59.3258 92.0544C59.4752 92.2223 59.6618 92.3529 59.8858 92.4461C60.1098 92.5394 60.3711 92.5581 60.6885 92.5021H60.7071Z" fill="#91562E"/>
<path d="M73.6425 84.4061C73.6052 84.2942 73.6425 84.2196 73.7172 84.2382C73.7919 84.2569 73.9039 84.2942 74.0345 84.3688C74.1652 84.4621 74.3145 84.574 74.4825 84.7419C74.6505 84.9098 74.7998 85.0777 74.9305 85.2642C75.0798 85.4508 75.1918 85.656 75.2851 85.8612C75.3785 86.0664 75.4158 86.2716 75.4158 86.4395C75.4158 86.4954 75.3971 86.626 75.3411 86.8126C75.3038 86.9991 75.2291 87.223 75.1545 87.4655C75.0798 87.7266 74.9865 88.0065 74.9118 88.3049C74.8185 88.6034 74.7252 88.9205 74.6505 89.2377C74.5572 89.5548 74.4825 89.8533 74.4078 90.1331C74.3332 90.4129 74.2772 90.6741 74.2399 90.8793C74.2025 91.0845 74.1839 91.2151 74.1652 91.327C74.1652 91.4203 74.1652 91.4762 74.1652 91.4949C74.1839 91.4949 74.2212 91.4949 74.2772 91.4576C74.3332 91.4203 74.4078 91.3456 74.5198 91.271C74.7812 91.0658 75.0425 90.8046 75.3038 90.4875C75.5651 90.1704 75.7891 89.8533 76.0131 89.5175C76.2371 89.1817 76.4424 88.8273 76.6291 88.4915C76.8157 88.1557 76.9837 87.8199 77.1144 87.5401C77.2637 87.2603 77.3757 86.9991 77.4504 86.7939C77.5437 86.5887 77.5997 86.4581 77.6184 86.4022C77.7304 86.1783 77.8237 86.0477 77.917 85.9918C78.0103 85.9358 78.0663 85.9545 78.1223 86.0104C78.1783 86.0664 78.197 86.1783 78.197 86.3462C78.197 86.4954 78.1597 86.682 78.085 86.8685C77.9917 87.1297 77.8424 87.4655 77.6744 87.8572C77.5064 88.249 77.301 88.6594 77.0584 89.0698C76.8157 89.4988 76.5544 89.9279 76.2744 90.3383C75.9944 90.7673 75.6771 91.1404 75.3598 91.4762C75.0425 91.812 74.7252 92.0918 74.3705 92.297C74.0345 92.5022 73.6985 92.6142 73.3626 92.6142C73.2879 92.6142 73.1759 92.5955 73.0639 92.5582C72.9519 92.5209 72.8399 92.4463 72.7279 92.353C72.6159 92.2597 72.5226 92.1105 72.4479 91.9239C72.3733 91.7374 72.3359 91.4949 72.3359 91.2151C72.3359 91.1591 72.3733 90.9912 72.4666 90.7114C72.5413 90.4316 72.6533 90.0958 72.7839 89.704C72.9146 89.3123 73.0452 88.8646 73.1759 88.3796C73.3066 87.8945 73.4186 87.4095 73.5119 86.9245C73.6052 86.4395 73.6799 85.9731 73.7172 85.5254C73.7545 85.0777 73.7359 84.7046 73.6612 84.3875L73.6425 84.4061ZM74.5572 82.9511C74.5758 82.7645 74.6132 82.578 74.6878 82.4101C74.7438 82.2422 74.8185 82.0929 74.8932 81.9624C74.9678 81.8318 75.0611 81.7385 75.1545 81.6639C75.2478 81.5893 75.3411 81.552 75.4345 81.552C75.5278 81.552 75.6025 81.5893 75.6771 81.6639C75.7518 81.7385 75.8078 81.8318 75.8451 81.9624C75.8824 82.0929 75.9198 82.2422 75.9198 82.4101C75.9198 82.578 75.9198 82.7645 75.9011 82.9511C75.8638 83.1376 75.8264 83.3242 75.7518 83.492C75.6958 83.6599 75.6211 83.8092 75.5278 83.9398C75.4531 84.0703 75.3598 84.1636 75.2665 84.2382C75.1731 84.3128 75.0798 84.3502 74.9865 84.3502C74.8932 84.3502 74.8185 84.3128 74.7438 84.2382C74.6692 84.1636 74.6132 84.0703 74.5758 83.9398C74.5385 83.8092 74.5198 83.6599 74.5012 83.492C74.5012 83.3242 74.5012 83.1376 74.5385 82.9511H74.5572Z" fill="#91562E"/>
<path d="M78.0478 79.6679C78.0478 79.6679 78.1224 79.7611 78.2344 79.7611C78.3464 79.7611 78.5144 79.7611 78.7011 79.7611L79.2797 77.5786C79.597 77.5786 79.8583 77.6345 80.0637 77.7838C80.2503 77.933 80.3997 78.1009 80.5116 78.3061C80.6236 78.5113 80.6796 78.7165 80.6983 78.9403C80.717 79.1642 80.7356 79.3507 80.7356 79.5186C81.0156 79.4813 81.3143 79.4627 81.6129 79.444C81.9116 79.444 82.1916 79.444 82.4716 79.444C82.7515 79.444 82.9942 79.4813 83.2369 79.5373C83.4795 79.5932 83.6848 79.6679 83.8528 79.7611C83.9275 79.7984 83.9648 79.8731 83.9835 79.9663C83.9835 80.0783 83.9835 80.1715 83.9835 80.2648C83.9835 80.3767 83.9462 80.4514 83.9088 80.526C83.8715 80.6006 83.8342 80.6193 83.7968 80.5819C83.6288 80.4514 83.4235 80.3767 83.1995 80.3208C82.9569 80.2648 82.7142 80.2275 82.4156 80.2275C82.1356 80.2275 81.8369 80.2275 81.5196 80.2462C81.2023 80.2648 80.9036 80.3021 80.605 80.3394C80.493 80.9923 80.3623 81.5706 80.2317 82.093C80.101 82.6153 79.9703 83.119 79.8397 83.5853C79.709 84.0517 79.5784 84.5181 79.4477 84.9844C79.317 85.4508 79.205 85.9358 79.093 86.4581C78.981 86.9805 78.8877 87.5588 78.7944 88.193C78.7011 88.8273 78.6451 89.5362 78.5891 90.3383C78.5891 90.5062 78.5891 90.6554 78.5891 90.8233C78.5891 90.9912 78.6264 91.1218 78.6637 91.2524C78.7011 91.383 78.7571 91.4949 78.8131 91.5695C78.8691 91.6441 78.9437 91.6814 79.0184 91.6814C79.149 91.6814 79.317 91.6068 79.485 91.4389C79.653 91.271 79.8397 91.0658 80.045 90.8047C80.2503 90.5435 80.437 90.245 80.661 89.9092C80.8663 89.5735 81.0716 89.2377 81.2769 88.8832C81.4823 88.5288 81.6689 88.193 81.8556 87.8572C82.0422 87.5215 82.1916 87.223 82.3222 86.9432C82.4529 86.682 82.5649 86.4581 82.6582 86.2716C82.7329 86.1037 82.7889 86.0104 82.8075 85.9918C82.8449 85.9172 82.9009 85.8612 82.9755 85.8239C83.0502 85.7866 83.0875 85.8239 83.1435 85.8239C83.1809 85.8612 83.2182 85.9172 83.2369 86.0104C83.2555 86.1037 83.2555 86.2156 83.2369 86.3649C83.2369 86.4022 83.1809 86.5141 83.1062 86.7193C83.0315 86.9245 82.9195 87.167 82.7702 87.4655C82.6209 87.764 82.4716 88.0997 82.2662 88.4915C82.0796 88.8646 81.8556 89.2563 81.6316 89.6481C81.4076 90.0398 81.1649 90.4129 80.9036 90.786C80.6423 91.1591 80.381 91.4762 80.1197 91.7747C79.8583 92.0545 79.597 92.297 79.3357 92.4649C79.0744 92.6328 78.8131 92.7261 78.5704 92.7261C78.4397 92.7261 78.2531 92.6888 78.0291 92.6142C77.8051 92.5395 77.5811 92.3903 77.3945 92.1664C77.1891 91.9426 77.0211 91.6255 76.8905 91.2151C76.7598 90.8047 76.7225 90.2637 76.7598 89.5921C76.7971 88.8646 76.8718 88.1371 76.9838 87.4468C77.0958 86.7566 77.2078 86.0477 77.3571 85.3202C77.5064 84.5927 77.6744 83.8465 77.8798 83.063C78.0664 82.2795 78.2904 81.4214 78.5331 80.4887C78.3651 80.4887 78.2344 80.4514 78.1224 80.3954C78.0104 80.3394 77.9358 80.2835 77.8798 80.2089C77.8424 80.1342 77.8238 80.0596 77.8424 79.9663C77.8424 79.8917 77.8798 79.8171 77.9171 79.7425C77.9544 79.6865 77.9918 79.6306 78.0291 79.6119C78.0664 79.5932 78.0851 79.5932 78.0851 79.6119L78.0478 79.6679Z" fill="#91562E"/>
<path d="M88.8181 86.2154C88.6874 86.5698 88.5381 86.9802 88.3141 87.4652C88.1088 87.9316 87.8475 88.4166 87.5675 88.9203C87.2875 89.424 86.9888 89.909 86.6529 90.394C86.3169 90.879 85.9809 91.3081 85.6262 91.6625C85.2716 92.0356 84.9169 92.3341 84.5623 92.5393C84.2076 92.7631 83.8716 92.8564 83.5543 92.8378C83.069 92.8004 82.677 92.6885 82.3597 92.502C82.0424 92.2968 81.7811 92.0543 81.5758 91.7744C81.3704 91.4946 81.2398 91.1775 81.1464 90.8417C81.0531 90.5059 81.0158 90.1888 80.9971 89.8717C80.9598 89.1628 81.0158 88.4726 81.2211 87.8197C81.4078 87.1668 81.6691 86.5885 82.0237 86.0848C82.3597 85.5811 82.7517 85.1894 83.1997 84.8909C83.629 84.5924 84.077 84.4245 84.525 84.4245C84.8983 84.4245 85.1783 84.4618 85.3836 84.5738C85.5889 84.6857 85.7382 84.8349 85.8316 85.0028C85.9249 85.1707 85.9809 85.3573 85.9996 85.5438C86.0182 85.7304 85.9996 85.8982 85.9996 86.0288C85.9622 86.5138 85.8316 86.9616 85.6076 87.3346C85.3836 87.7077 85.1223 88.0435 84.8236 88.3047C84.525 88.5845 84.245 88.8084 83.9463 88.9763C83.6477 89.1441 83.405 89.2747 83.237 89.3493C83.1437 89.7971 83.1064 90.2448 83.1064 90.6738C83.1064 91.0469 83.1623 91.3454 83.2557 91.5692C83.349 91.7931 83.517 91.8677 83.7597 91.8304C83.9463 91.7931 84.133 91.7371 84.357 91.6252C84.5623 91.5133 84.7863 91.3827 85.0103 91.2335C85.2343 91.0656 85.4582 90.879 85.6636 90.6365C85.8876 90.4127 86.0929 90.1328 86.2795 89.853C86.4849 89.5359 86.7089 89.1815 86.9328 88.7897C87.1568 88.398 87.3435 88.0062 87.5488 87.6145C87.7355 87.2227 87.9035 86.8683 88.0528 86.5325C88.2021 86.1967 88.3141 85.9542 88.3888 85.7677C88.5008 85.5438 88.5941 85.4132 88.6874 85.3573C88.7808 85.3013 88.8368 85.32 88.8928 85.3946C88.9488 85.4692 88.9674 85.5811 88.9674 85.7304C88.9674 85.8796 88.9301 86.0661 88.8554 86.2527L88.8181 86.2154ZM85.1036 85.3759C84.9916 85.4132 84.8609 85.5065 84.7116 85.6744C84.5623 85.8423 84.413 86.0661 84.2636 86.346C84.1143 86.6258 83.965 86.9243 83.8157 87.2787C83.6663 87.6331 83.5357 88.0062 83.4237 88.398C83.6477 88.3233 83.8717 88.1928 84.0956 87.9876C84.3196 87.7824 84.525 87.5772 84.7116 87.3346C84.8983 87.0921 85.0476 86.8496 85.1783 86.6071C85.3089 86.3646 85.3836 86.1408 85.4023 85.9356C85.4023 85.8609 85.4209 85.7863 85.4023 85.7117C85.4023 85.6371 85.3836 85.5625 85.3649 85.5065C85.3463 85.4505 85.3089 85.4132 85.2716 85.3759C85.2343 85.3386 85.1783 85.3386 85.1036 85.3573V85.3759Z" fill="#91562E"/>
<path d="M88.3328 85.8797C88.3328 85.4693 88.3515 85.1149 88.4448 84.8164C88.5382 84.5179 88.6688 84.2754 88.8182 84.0702C88.9675 83.865 89.1541 83.6971 89.3408 83.5665C89.5275 83.4359 89.7141 83.3427 89.9008 83.268C90.0874 83.1934 90.2368 83.1375 90.3861 83.1188C90.5354 83.0815 90.6287 83.0628 90.6847 83.0442C90.8154 83.0069 90.9087 83.0442 91.0021 83.1002C91.0954 83.1561 91.1701 83.2494 91.2074 83.3427C91.2447 83.4359 91.2634 83.5479 91.2447 83.6411C91.2261 83.7531 91.1514 83.8277 91.0581 83.865C91.0207 83.865 90.9647 83.9396 90.8901 84.0329C90.8154 84.1448 90.7407 84.2567 90.6661 84.4246C90.5914 84.5739 90.5167 84.7604 90.4608 84.947C90.4048 85.1335 90.3674 85.3387 90.3488 85.5439C90.3114 85.973 90.3301 86.458 90.3488 87.0363C90.3861 87.5959 90.4234 88.1929 90.4421 88.8085C90.7407 88.6219 91.0207 88.4167 91.3007 88.2115C91.5807 88.0063 91.842 87.7825 92.066 87.54C92.3087 87.2974 92.514 87.0549 92.682 86.7938C92.8686 86.5326 92.9993 86.2341 93.0926 85.9357C93.1486 85.7491 93.2233 85.6372 93.298 85.5999C93.3913 85.5626 93.466 85.5626 93.5406 85.5999C93.6153 85.6558 93.6526 85.7491 93.6899 85.8797C93.7086 86.0103 93.6899 86.1782 93.6339 86.3647C93.5406 86.6632 93.3726 86.9617 93.1673 87.2601C92.962 87.5586 92.7006 87.8384 92.4207 88.1369C92.1407 88.4167 91.8234 88.6965 91.4874 88.9764C91.1514 89.2375 90.8154 89.4987 90.4794 89.7598C90.4794 90.2076 90.4421 90.618 90.3861 91.0284C90.3301 91.4388 90.2368 91.8119 90.0874 92.1476C89.9381 92.4834 89.7515 92.7632 89.5088 92.9871C89.2661 93.2109 88.9488 93.3788 88.5568 93.4535C88.2768 93.5094 88.0342 93.5094 87.8102 93.4535C87.6049 93.3788 87.4182 93.2669 87.2876 93.099C87.1569 92.9311 87.0636 92.7446 87.0076 92.5207C86.9516 92.2969 86.9516 92.0544 86.9889 91.8119C87.0262 91.5693 87.1009 91.3268 87.2316 91.103C87.3622 90.8605 87.5302 90.6553 87.7542 90.4874C87.8662 90.3941 87.9969 90.3008 88.1275 90.2262C88.2582 90.1329 88.4075 90.0583 88.5568 89.965C88.5568 89.5546 88.5568 89.1069 88.5195 88.6592C88.5008 88.2115 88.4635 87.8011 88.4262 87.4094C88.3888 87.0176 88.3515 86.7005 88.3328 86.4207C88.3142 86.1409 88.2955 85.9543 88.2955 85.8797H88.3328ZM88.0529 92.2596C88.1835 92.2223 88.2955 92.1103 88.3702 91.9051C88.4448 91.6999 88.5008 91.4574 88.5382 91.1403L88.1462 91.4201C87.9969 91.5507 87.8662 91.6626 87.7729 91.7932C87.6795 91.9238 87.6235 92.0171 87.6049 92.1103C87.6049 92.2036 87.6049 92.2596 87.6795 92.2969C87.7542 92.3342 87.8662 92.3155 88.0155 92.2596H88.0529Z" fill="#91562E"/>
</svg>
